<svg width="600" height="138" viewBox="0 0 600 138" fill="none" xmlns="http://www.w3.org/2000/svg">
<path d="M26.9286 78.1838C38.7158 78.1838 49.7364 67.4961 49.7364 48.913C49.7364 32.4482 41.7824 21.568 28.5577 21.568C23.287 21.568 17.9204 24.1677 13.7039 28.0191L14.0872 19.3534V0H0V76.8358H11.0206L12.2664 71.155H12.6497C16.9621 75.6804 22.137 78.1838 26.9286 78.1838ZM23.7661 66.5333C20.8912 66.5333 17.4413 65.4741 14.0872 62.4893V38.8031C17.7288 35.0479 20.987 33.2185 24.6286 33.2185C32.0076 33.2185 35.2659 38.8993 35.2659 49.2019C35.2659 60.9487 30.2827 66.5333 23.7661 66.5333Z" fill="black"/>
<path d="M72.0224 78.1838C75.3765 78.1838 77.6764 77.6061 79.3056 76.9321L77.5806 66.437C76.6223 66.6296 76.239 66.6296 75.664 66.6296C74.3223 66.6296 72.8849 65.5704 72.8849 62.2967V0H58.7977V61.719C58.7977 71.7327 62.2476 78.1838 72.0224 78.1838Z" fill="black"/>
<path d="M99.3755 78.1838C105.509 78.1838 110.875 75.1027 115.571 71.0587H115.954L116.913 76.8358H128.412V45.3505C128.412 29.7522 121.417 21.568 107.809 21.568C99.3755 21.568 91.709 24.7454 85.3841 28.6931L90.4632 38.0328C95.4464 35.1442 100.238 32.9296 105.221 32.9296C111.834 32.9296 114.133 36.9736 114.421 42.2693C92.7631 44.5802 83.4675 50.6462 83.4675 62.2004C83.4675 71.3476 89.7924 78.1838 99.3755 78.1838ZM103.975 67.111C99.8546 67.111 96.8839 65.2816 96.8839 61.045C96.8839 56.2307 101.292 52.5719 114.421 50.935V61.8153C110.971 65.1853 108 67.111 103.975 67.111Z" fill="black"/>
<path d="M139.895 76.8358H153.982V39.7659C157.911 35.8182 160.69 33.6999 165.098 33.6999C170.369 33.6999 172.669 36.5885 172.669 44.9653V76.8358H186.756V43.2322C186.756 29.6559 181.773 21.568 170.178 21.568C162.894 21.568 157.432 25.4194 152.736 30.0411H152.449L151.395 22.9159H139.895V76.8358Z" fill="black"/>
<path d="M198.412 76.8358H212.307V63.1633L219.878 54.4976L232.911 76.8358H248.148L228.024 45.1579L246.423 22.9159H230.994L212.691 46.1208H212.307V0H198.412V76.8358Z" fill="black"/>
<path d="M292.042 78.1838C296.738 78.1838 300.475 77.1247 303.35 76.1618L301.05 65.8593C299.613 66.437 297.504 67.0147 295.779 67.0147C290.988 67.0147 288.496 64.1261 288.496 57.9639V34.0851H301.721V22.9159H288.496V8.37684H276.805L275.176 22.9159L266.838 23.5899V34.0851H274.409V57.9639C274.409 69.9995 279.296 78.1838 292.042 78.1838Z" fill="black"/>
<path d="M309.763 76.8358H323.85V39.7659C327.779 35.8182 330.559 33.6999 334.967 33.6999C340.237 33.6999 342.537 36.5885 342.537 44.9653V76.8358H356.625V43.2322C356.625 29.6559 351.641 21.568 340.046 21.568C332.763 21.568 327.492 25.4194 323.18 29.4634L323.85 19.3534V0H309.763V76.8358Z" fill="black"/>
<path d="M391.569 78.1838C398.182 78.1838 404.986 75.873 410.256 72.2141L405.465 63.5484C401.632 65.9556 397.798 67.3036 393.39 67.3036C385.436 67.3036 379.686 62.6819 378.536 53.8236H411.598C411.981 52.5719 412.269 49.9722 412.269 47.2762C412.269 32.4482 404.602 21.568 389.844 21.568C377.099 21.568 364.832 32.4482 364.832 49.8759C364.832 67.6887 376.524 78.1838 391.569 78.1838ZM378.345 44.3876C379.399 36.5885 384.382 32.5445 390.036 32.5445C396.936 32.5445 400.194 37.1662 400.194 44.3876H378.345Z" fill="black"/>
<path d="M420.995 76.8358H435.082V39.7659C438.819 35.7219 442.269 33.6999 445.336 33.6999C450.415 33.6999 452.907 36.5885 452.907 44.9653V76.8358H466.898V39.7659C470.731 35.7219 474.181 33.6999 477.248 33.6999C482.327 33.6999 484.723 36.5885 484.723 44.9653V76.8358H498.81V43.2322C498.81 29.6559 493.539 21.568 482.135 21.568C475.139 21.568 469.965 25.8045 465.077 31.0039C462.49 25.0342 457.986 21.568 450.319 21.568C443.323 21.568 438.34 25.4194 433.836 30.1374H433.549L432.495 22.9159H420.995V76.8358Z" fill="black"/>
<path d="M533.871 78.1838C540.484 78.1838 547.288 75.873 552.558 72.2141L547.767 63.5484C543.934 65.9556 540.1 67.3036 535.692 67.3036C527.738 67.3036 521.988 62.6819 520.838 53.8236H553.9C554.283 52.5719 554.571 49.9722 554.571 47.2762C554.571 32.4482 546.904 21.568 532.146 21.568C519.401 21.568 507.134 32.4482 507.134 49.8759C507.134 67.6887 518.826 78.1838 533.871 78.1838ZM520.647 44.3876C521.701 36.5885 526.684 32.5445 532.338 32.5445C539.238 32.5445 542.496 37.1662 542.496 44.3876H520.647Z" fill="black"/>
<path d="M578.63 78.1838C592.621 78.1838 600 70.5773 600 61.1413C600 51.1276 592.142 47.565 585.05 44.869C579.396 42.7508 574.413 41.3065 574.413 37.3588C574.413 34.2776 576.713 32.1594 581.6 32.1594C585.53 32.1594 589.267 33.9888 593.1 36.7811L599.425 28.2117C595.017 24.8417 588.979 21.568 581.217 21.568C568.951 21.568 561.188 28.4042 561.188 38.0328C561.188 47.0836 568.759 51.2239 575.563 53.8236C581.217 56.0382 586.775 57.8676 586.775 61.9116C586.775 65.2816 584.38 67.5924 579.013 67.5924C574.03 67.5924 569.43 65.4741 564.638 61.719L558.218 70.5773C563.584 75.0064 571.442 78.1838 578.63 78.1838Z" fill="black"/>
<path d="M0 129.036H4.4995V118.163H8.80506C15.0113 118.163 19.5496 115.279 19.5496 109.004C19.5496 102.535 15.0113 100.313 8.64991 100.313H0V129.036ZM4.4995 114.538V103.977H8.22323C12.7615 103.977 15.1276 105.224 15.1276 109.004C15.1276 112.785 12.9555 114.538 8.37839 114.538H4.4995Z" fill="black"/>
<path d="M33.4008 129.543C38.6761 129.543 43.4471 125.451 43.4471 118.319C43.4471 111.187 38.6761 107.056 33.4008 107.056C28.1255 107.056 23.3545 111.187 23.3545 118.319C23.3545 125.451 28.1255 129.543 33.4008 129.543ZM33.4008 125.879C30.065 125.879 27.9704 122.879 27.9704 118.319C27.9704 113.798 30.065 110.758 33.4008 110.758C36.7754 110.758 38.87 113.798 38.87 118.319C38.87 122.879 36.7754 125.879 33.4008 125.879Z" fill="black"/>
<path d="M53.0822 129.036H58.2411L60.84 118.475C61.383 116.448 61.7709 114.46 62.1976 112.239H62.3915C62.857 114.46 63.2449 116.409 63.7491 118.436L66.4644 129.036H71.8172L77.3252 107.601H73.136L70.382 119.176C69.9166 121.281 69.5675 123.229 69.1408 125.295H68.9856C68.4814 123.229 68.0547 121.281 67.5504 119.176L64.4861 107.601H60.3745L57.349 119.176C56.8447 121.242 56.418 123.229 55.9526 125.295H55.7974C55.4095 123.229 55.0604 121.281 54.6338 119.176L51.8022 107.601H47.3027L53.0822 129.036Z" fill="black"/>
<path d="M91.571 129.543C94.3638 129.543 96.8075 128.608 98.7857 127.282L97.2342 124.437C95.6826 125.451 94.0535 126.035 92.1529 126.035C88.4679 126.035 85.9079 123.58 85.5588 119.488H99.4064C99.5227 118.942 99.6391 118.085 99.6391 117.189C99.6391 111.148 96.5748 107.056 90.9116 107.056C85.9466 107.056 81.1756 111.382 81.1756 118.319C81.1756 125.412 85.7915 129.543 91.571 129.543ZM85.52 116.37C85.9466 112.629 88.3128 110.563 90.9892 110.563C94.0923 110.563 95.7602 112.707 95.7602 116.37H85.52Z" fill="black"/>
<path d="M105.784 129.036H110.245V115.669C111.564 112.278 113.659 111.07 115.404 111.07C116.257 111.07 116.8 111.187 117.537 111.421L118.352 107.523C117.693 107.212 116.994 107.056 115.947 107.056C113.659 107.056 111.409 108.693 109.896 111.46H109.78L109.431 107.601H105.784V129.036Z" fill="black"/>
<path d="M131.286 129.543C134.078 129.543 136.522 128.608 138.5 127.282L136.949 124.437C135.397 125.451 133.768 126.035 131.867 126.035C128.183 126.035 125.622 123.58 125.273 119.488H139.121C139.237 118.942 139.354 118.085 139.354 117.189C139.354 111.148 136.289 107.056 130.626 107.056C125.661 107.056 120.89 111.382 120.89 118.319C120.89 125.412 125.506 129.543 131.286 129.543ZM125.235 116.37C125.661 112.629 128.027 110.563 130.704 110.563C133.807 110.563 135.475 112.707 135.475 116.37H125.235Z" fill="black"/>
<path d="M152.869 129.543C155.274 129.543 157.485 128.257 159.075 126.62H159.23L159.579 129.036H163.225V97.975H158.765V105.925L158.959 109.472C157.213 107.991 155.662 107.056 153.218 107.056C148.447 107.056 144.064 111.382 144.064 118.319C144.064 125.451 147.516 129.543 152.869 129.543ZM153.916 125.841C150.58 125.841 148.68 123.151 148.68 118.28C148.68 113.642 151.085 110.797 154.071 110.797C155.662 110.797 157.174 111.304 158.765 112.746V123.229C157.213 125.022 155.7 125.841 153.916 125.841Z" fill="black"/>
<path d="M190.901 129.543C195.711 129.543 200.094 125.334 200.094 117.968C200.094 111.382 197.03 107.056 191.638 107.056C189.388 107.056 187.1 108.264 185.277 109.862L185.432 106.198V97.975H180.971V129.036H184.462L184.889 126.815H185.005C186.828 128.53 188.962 129.543 190.901 129.543ZM190.048 125.841C188.729 125.841 187.061 125.334 185.432 123.892V113.408C187.177 111.654 188.806 110.797 190.474 110.797C194.043 110.797 195.478 113.564 195.478 118.046C195.478 123.073 193.151 125.841 190.048 125.841Z" fill="black"/>
<path d="M207.272 138C211.771 138 214.021 134.921 215.689 130.322L223.524 107.601H219.18L215.766 118.631C215.223 120.579 214.642 122.723 214.099 124.671H213.905C213.245 122.684 212.586 120.54 211.965 118.631L208.009 107.601H203.432L211.888 128.88L211.461 130.361C210.685 132.661 209.328 134.376 207 134.376C206.457 134.376 205.837 134.181 205.449 134.064L204.595 137.571C205.332 137.844 206.186 138 207.272 138Z" fill="black"/>
<path d="M238.829 129.036H243.328V100.313H238.829V129.036Z" fill="black"/>
<path d="M257.781 129.036H262.28V104.133H270.697V100.313H249.402V104.133H257.781V129.036Z" fill="black"/>
<path d="M276.801 129.036H284.442C292.976 129.036 297.979 123.892 297.979 114.577C297.979 105.224 292.976 100.313 284.209 100.313H276.801V129.036ZM281.3 125.334V104.016H283.899C290.028 104.016 293.325 107.406 293.325 114.577C293.325 121.709 290.028 125.334 283.899 125.334H281.3Z" fill="black"/>
<path d="M326.095 129.543C329.78 129.543 332.689 128.062 334.977 125.412L332.572 122.567C330.866 124.437 328.887 125.607 326.25 125.607C321.207 125.607 318.027 121.437 318.027 114.616C318.027 107.874 321.44 103.743 326.366 103.743C328.693 103.743 330.478 104.795 331.952 106.315L334.395 103.431C332.65 101.522 329.857 99.8067 326.289 99.8067C319.074 99.8067 313.411 105.419 313.411 114.772C313.411 124.165 318.919 129.543 326.095 129.543Z" fill="black"/>
<path d="M340.814 129.036H345.275V115.669C346.594 112.278 348.689 111.07 350.434 111.07C351.287 111.07 351.83 111.187 352.567 111.421L353.382 107.523C352.723 107.212 352.024 107.056 350.977 107.056C348.689 107.056 346.439 108.693 344.926 111.46H344.81L344.461 107.601H340.814V129.036Z" fill="black"/>
<path d="M366.316 129.543C369.108 129.543 371.552 128.608 373.53 127.282L371.979 124.437C370.427 125.451 368.798 126.035 366.897 126.035C363.212 126.035 360.652 123.58 360.303 119.488H374.151C374.267 118.942 374.384 118.085 374.384 117.189C374.384 111.148 371.319 107.056 365.656 107.056C360.691 107.056 355.92 111.382 355.92 118.319C355.92 125.412 360.536 129.543 366.316 129.543ZM360.265 116.37C360.691 112.629 363.057 110.563 365.734 110.563C368.837 110.563 370.505 112.707 370.505 116.37H360.265Z" fill="black"/>
<path d="M385.003 129.543C387.563 129.543 389.852 128.257 391.791 126.581H391.946L392.296 129.036H395.942V116.136C395.942 110.446 393.498 107.056 388.184 107.056C384.771 107.056 381.784 108.459 379.573 109.862L381.241 112.902C383.064 111.732 385.158 110.719 387.408 110.719C390.55 110.719 391.442 112.902 391.481 115.396C382.598 116.37 378.72 118.747 378.72 123.346C378.72 127.127 381.318 129.543 385.003 129.543ZM386.361 125.996C384.46 125.996 383.025 125.139 383.025 123.034C383.025 120.618 385.158 118.981 391.481 118.241V123.502C389.736 125.1 388.223 125.996 386.361 125.996Z" fill="black"/>
<path d="M409.968 129.543C411.519 129.543 412.954 129.153 414.157 128.763L413.342 125.451C412.722 125.724 411.791 125.957 411.054 125.957C408.843 125.957 407.951 124.632 407.951 122.06V111.187H413.497V107.601H407.951V101.677H404.227L403.723 107.601L400.387 107.835V111.187H403.49V122.021C403.49 126.542 405.158 129.543 409.968 129.543Z" fill="black"/>
<path d="M419.334 129.036H423.795V107.601H419.334V129.036ZM421.545 103.587C423.175 103.587 424.338 102.535 424.338 100.898C424.338 99.3001 423.175 98.2478 421.545 98.2478C419.916 98.2478 418.791 99.3001 418.791 100.898C418.791 102.535 419.916 103.587 421.545 103.587Z" fill="black"/>
<path d="M436.328 129.036H441.487L448.857 107.601H444.513L440.867 119.137C440.285 121.242 439.625 123.424 439.005 125.529H438.85C438.229 123.424 437.608 121.242 436.988 119.137L433.342 107.601H428.764L436.328 129.036Z" fill="black"/>
<path d="M462.591 129.543C465.383 129.543 467.827 128.608 469.805 127.282L468.254 124.437C466.702 125.451 465.073 126.035 463.173 126.035C459.488 126.035 456.928 123.58 456.578 119.488H470.426C470.542 118.942 470.659 118.085 470.659 117.189C470.659 111.148 467.594 107.056 461.931 107.056C456.966 107.056 452.195 111.382 452.195 118.319C452.195 125.412 456.811 129.543 462.591 129.543ZM456.54 116.37C456.966 112.629 459.332 110.563 462.009 110.563C465.112 110.563 466.78 112.707 466.78 116.37H456.54Z" fill="black"/>
<path d="M495.214 129.543C500.489 129.543 505.26 125.451 505.26 118.319C505.26 111.187 500.489 107.056 495.214 107.056C489.938 107.056 485.167 111.187 485.167 118.319C485.167 125.451 489.938 129.543 495.214 129.543ZM495.214 125.879C491.878 125.879 489.783 122.879 489.783 118.319C489.783 113.798 491.878 110.758 495.214 110.758C498.588 110.758 500.683 113.798 500.683 118.319C500.683 122.879 498.588 125.879 495.214 125.879Z" fill="black"/>
<path d="M525.246 129.036H529.707V111.187H534.012V107.601H529.707V104.873C529.707 102.262 530.677 101.015 532.538 101.015C533.275 101.015 534.129 101.21 534.905 101.561L535.797 98.1699C534.827 97.7802 533.469 97.4684 531.995 97.4684C527.263 97.4684 525.246 100.508 525.246 104.912V107.601H516.868V105.38C516.868 102.808 518.031 101.444 519.932 101.444C521.018 101.444 521.833 101.638 522.686 102.028L523.578 98.6765C522.492 98.2089 521.018 97.8971 519.505 97.8971C514.618 97.8971 512.407 100.898 512.407 105.341V107.601L509.498 107.835V111.187H512.407V129.036H516.868V111.187H525.246V129.036ZM537.891 129.036H542.391V107.601H537.891V129.036ZM540.141 103.587C541.77 103.587 542.934 102.535 542.934 100.898C542.934 99.3001 541.77 98.2478 540.141 98.2478C538.512 98.2478 537.387 99.3001 537.387 100.898C537.387 102.535 538.512 103.587 540.141 103.587Z" fill="black"/>
<path d="M558.91 129.543C561.353 129.543 563.875 128.647 565.853 126.893L563.991 123.931C562.711 125.022 561.121 125.879 559.336 125.879C555.807 125.879 553.324 122.879 553.324 118.319C553.324 113.798 555.884 110.758 559.492 110.758C560.927 110.758 562.129 111.382 563.293 112.434L565.504 109.511C563.952 108.147 561.974 107.056 559.259 107.056C553.634 107.056 548.708 111.187 548.708 118.319C548.708 125.451 553.13 129.543 558.91 129.543Z" fill="black"/>
<path d="M579.283 129.543C582.076 129.543 584.519 128.608 586.498 127.282L584.946 124.437C583.395 125.451 581.765 126.035 579.865 126.035C576.18 126.035 573.62 123.58 573.271 119.488H587.118C587.235 118.942 587.351 118.085 587.351 117.189C587.351 111.148 584.287 107.056 578.624 107.056C573.659 107.056 568.888 111.382 568.888 118.319C568.888 125.412 573.503 129.543 579.283 129.543ZM573.232 116.37C573.659 112.629 576.025 110.563 578.701 110.563C581.804 110.563 583.472 112.707 583.472 116.37H573.232Z" fill="black"/>
<path d="M595.901 129.543C597.569 129.543 598.888 128.257 598.888 126.425C598.888 124.554 597.569 123.229 595.901 123.229C594.233 123.229 592.914 124.554 592.914 126.425C592.914 128.257 594.233 129.543 595.901 129.543Z" fill="black"/>
</svg>
